<svg xmlns="http://www.w3.org/2000/svg" version="1.0" width="741.000000pt" height="900.000000pt" viewBox="0 0 741.000000 900.000000" preserveAspectRatio="xMidYMid meet">
<metadata fill="#ffffff">
Created by potrace 1.10, written by Peter Selinger 2001-2011
</metadata>
<g transform="translate(0.000000,900.000000) scale(0.100000,-0.100000)" fill="#ffffff" stroke="none">
<path d="M5115 8233 c-169 -6 -420 -32 -565 -58 -47 -9 -108 -20 -137 -24 -28 -5 -57 -12 -63 -16 -7 -4 -37 -13 -68 -20 -118 -26 -405 -111 -457 -134 -11 -5 -74 -31 -140 -56 -162 -64 -188 -76 -348 -156 -175 -87 -250 -130 -427 -245 -298 -192 -734 -575 -946 -829 -32 -38 -65 -76 -72 -84 -43 -45 -253 -338 -329 -461 -95 -153 -243 -431 -288 -540 -14 -36 -32 -78 -39 -95 -8 -16 -19 -41 -24 -55 -6 -14 -19 -45 -30 -70 -18 -44 -99 -294 -127 -395 -95 -338 -135 -636 -135 -995 0 -225 19 -463 50 -620 23 -117 43 -209 54 -245 7 -22 21 -67 31 -100 38 -126 88 -270 96 -279 5 -6 9 -16 9 -23 0 -12 113 -247 168 -348 142 -262 404 -577 662 -794 189 -159 342 -262 555 -369 163 -83 211 -103 345 -147 63 -20 123 -41 133 -46 10 -6 37 -14 60 -19 23 -5 71 -16 107 -25 187 -45 466 -69 675 -60 179 9 469 47 558 74 17 5 79 24 137 41 202 61 295 99 469 189 118 62 310 187 420 275 226 181 465 452 620 706 118 193 276 557 312 720 4 19 15 62 24 95 84 316 86 821 5 1230 -29 150 -157 503 -215 594 -14 23 -25 43 -25 46 0 14 -118 194 -182 277 -267 347 -627 607 -1149 832 -59 25 -449 153 -541 176 -26 7 -52 18 -57 24 -13 16 4 398 23 521 62 397 208 743 431 1020 116 144 321 330 448 405 75 44 96 74 60 81 -10 2 -49 3 -88 2z m-565 -325 c0 -6 -24 -41 -53 -77 -119 -147 -151 -198 -244 -382 -71 -140 -73 -145 -118 -289 -62 -196 -61 -194 -106 -410 -22 -111 -32 -233 -36 -471 -4 -212 -2 -257 10 -267 7 -7 40 -16 73 -21 100 -15 408 -99 479 -131 11 -5 45 -19 75 -30 30 -11 64 -25 75 -30 11 -5 59 -25 106 -45 168 -70 434 -224 584 -339 56 -43 256 -220 280 -248 181 -214 199 -239 297 -407 75 -127 177 -413 209 -585 76 -400 76 -730 1 -1093 -15 -71 -51 -208 -61 -235 -5 -13 -17 -43 -26 -68 -180 -469 -443 -827 -815 -1109 -174 -133 -394 -260 -545 -315 -38 -15 -79 -30 -90 -35 -108 -47 -211 -76 -439 -121 -166 -33 -512 -49 -671 -31 -259 30 -510 92 -665 163 -25 11 -62 27 -83 34 -95 34 -325 166 -467 268 -181 130 -421 363 -553 536 -71 94 -185 268 -231 354 -59 108 -126 241 -126 249 0 4 -11 31 -25 61 -14 30 -25 61 -25 70 0 8 -5 18 -10 21 -5 3 -10 15 -10 27 0 11 -6 32 -14 46 -24 44 -74 220 -96 337 -36 189 -40 207 -52 305 -17 127 -17 655 0 775 31 230 89 507 120 585 6 14 19 54 30 90 40 128 81 242 117 325 21 47 203 418 215 435 5 8 35 58 66 110 47 80 107 175 136 215 90 124 216 287 266 345 159 186 449 461 627 595 28 20 67 51 88 67 93 76 453 308 477 308 5 0 15 6 23 14 12 13 218 116 327 164 201 88 498 185 700 227 169 35 180 35 180 13z" fill="#ffffff"/>
<path d="M2952 7793 c2 -10 10 -18 18 -18 8 0 16 8 18 18 2 12 -3 17 -18 17 -15 0 -20 -5 -18 -17z" fill="#ffffff"/>
<path d="M2731 7676 c-16 -19 -6 -36 20 -36 15 0 20 6 17 22 -4 27 -21 33 -37 14z" fill="#ffffff"/>
<path d="M2520 7535 c-25 -30 5 -57 40 -35 11 7 12 14 4 27 -15 23 -29 26 -44 8z" fill="#ffffff"/>
<path d="M2314 7385 c-9 -23 3 -45 24 -45 28 0 43 20 31 42 -12 22 -47 24 -55 3z" fill="#ffffff"/>
<path d="M2121 7226 c-18 -22 4 -58 32 -54 31 4 32 62 1 66 -11 2 -26 -4 -33 -12z" fill="#ffffff"/>
<path d="M1935 7050 c-8 -27 12 -52 39 -48 16 2 21 10 21 33 0 25 -4 31 -27 33 -19 2 -28 -2 -33 -18z" fill="#ffffff"/>
<path d="M1782 6893 c-22 -8 -34 -41 -22 -63 22 -41 78 -13 66 34 -6 25 -23 36 -44 29z" fill="#ffffff"/>
<path d="M1599 6689 c-18 -18 -19 -23 -6 -42 8 -12 22 -23 31 -25 42 -9 64 58 27 78 -26 13 -28 13 -52 -11z" fill="#ffffff"/>
<path d="M1448 6499 c-36 -21 -16 -79 27 -79 44 0 63 60 26 80 -24 12 -31 12 -53 -1z" fill="#ffffff"/>
<path d="M1312 6294 c-24 -17 -29 -53 -10 -72 34 -34 108 17 78 54 -24 28 -46 34 -68 18z" fill="#ffffff"/>
<path d="M1178 6078 c-36 -30 -26 -88 16 -88 43 0 56 10 56 46 0 46 -39 68 -72 42z" fill="#ffffff"/>
<path d="M1056 5854 c-24 -24 -20 -61 9 -80 23 -15 27 -15 50 0 30 20 33 56 7 79 -23 21 -46 22 -66 1z" fill="#ffffff"/>
<path d="M5970 5635 c0 -8 5 -15 10 -15 6 0 10 7 10 15 0 8 -4 15 -10 15 -5 0 -10 -7 -10 -15z" fill="#ffffff"/>
<path d="M945 5620 c-29 -32 -10 -74 33 -78 40 -4 62 12 62 44 0 50 -61 72 -95 34z" fill="#ffffff"/>
<path d="M6132 5438 c5 -15 28 -18 29 -3 0 6 -7 12 -17 13 -10 3 -15 -1 -12 -10z" fill="#ffffff"/>
<path d="M859 5397 c-60 -46 4 -123 72 -87 27 15 25 64 -3 84 -27 19 -47 20 -69 3z" fill="#ffffff"/>
<path d="M6266 5235 c-3 -9 1 -18 10 -22 19 -7 39 11 30 26 -10 16 -33 13 -40 -4z" fill="#ffffff"/>
<path d="M775 5150 c-19 -21 -14 -68 8 -82 38 -24 97 6 97 49 0 47 -71 70 -105 33z" fill="#ffffff"/>
<path d="M6386 5025 c-8 -22 4 -45 24 -45 20 0 36 33 25 50 -9 15 -42 12 -49 -5z" fill="#ffffff"/>
<path d="M717 4912 c-34 -38 -9 -102 39 -102 34 0 64 29 64 60 0 52 -69 80 -103 42z" fill="#ffffff"/>
<path d="M6503 4813 c-18 -6 -16 -50 1 -56 8 -3 22 1 33 8 28 21 -1 62 -34 48z" fill="#ffffff"/>
<path d="M672 4672 c-33 -26 -28 -80 11 -102 24 -13 30 -13 55 0 38 22 43 76 10 102 -13 9 -30 18 -38 18 -8 0 -25 -9 -38 -18z" fill="#ffffff"/>
<path d="M6565 4559 c-14 -43 45 -66 61 -24 8 19 -13 45 -37 45 -10 0 -21 -10 -24 -21z" fill="#ffffff"/>
<path d="M632 4418 c-35 -43 -6 -108 47 -108 51 0 83 66 51 105 -15 18 -83 20 -98 3z" fill="#ffffff"/>
<path d="M6630 4325 c-29 -35 20 -74 56 -45 18 16 18 25 -2 44 -19 20 -38 20 -54 1z" fill="#ffffff"/>
<path d="M620 4168 c-25 -28 -26 -62 0 -88 39 -39 110 -11 110 44 0 27 -42 66 -71 66 -10 0 -27 -10 -39 -22z" fill="#ffffff"/>
<path d="M6672 4078 c-20 -20 -14 -48 13 -60 34 -15 61 8 51 46 -7 28 -42 36 -64 14z" fill="#ffffff"/>
<path d="M626 3919 c-35 -28 -35 -70 1 -99 47 -37 102 -7 103 56 0 23 -7 36 -25 48 -32 21 -47 20 -79 -5z" fill="#ffffff"/>
<path d="M6692 3838 c-35 -35 15 -99 53 -68 30 25 12 80 -25 80 -9 0 -21 -5 -28 -12z" fill="#ffffff"/>
<path d="M647 3679 c-27 -16 -39 -56 -26 -82 16 -30 28 -37 66 -37 41 0 69 36 58 77 -11 47 -57 66 -98 42z" fill="#ffffff"/>
<path d="M6692 3578 c-7 -7 -12 -20 -12 -30 0 -22 42 -50 64 -42 18 7 31 46 22 69 -7 18 -57 20 -74 3z" fill="#ffffff"/>
<path d="M672 3424 c-32 -22 -31 -86 3 -108 33 -21 57 -20 83 4 63 59 -15 154 -86 104z" fill="#ffffff"/>
<path d="M6675 3326 c-19 -29 -8 -61 26 -71 45 -15 82 62 40 85 -31 16 -49 12 -66 -14z" fill="#ffffff"/>
<path d="M745 3192 c-26 -5 -54 -41 -55 -68 0 -28 43 -66 75 -66 36 0 65 29 65 66 0 17 -4 36 -8 43 -10 16 -53 30 -77 25z" fill="#ffffff"/>
<path d="M6651 3094 c-37 -26 -18 -94 26 -94 24 0 53 30 53 54 0 38 -48 62 -79 40z" fill="#ffffff"/>
<path d="M810 2952 c-74 -23 -61 -142 15 -142 30 0 75 41 75 68 0 41 -54 85 -90 74z" fill="#ffffff"/>
<path d="M6574 2835 c-15 -23 -15 -27 0 -50 18 -27 63 -34 84 -13 30 30 -1 88 -46 88 -12 0 -29 -11 -38 -25z" fill="#ffffff"/>
<path d="M859 2691 c-25 -25 -30 -37 -24 -58 21 -83 136 -76 143 9 3 38 -16 62 -60 73 -22 6 -33 1 -59 -24z" fill="#ffffff"/>
<path d="M6512 2614 c-47 -32 -8 -117 46 -100 46 15 47 82 2 106 -24 13 -21 13 -48 -6z" fill="#ffffff"/>
<path d="M964 2472 c-20 -13 -33 -48 -27 -73 13 -54 84 -77 118 -39 22 24 25 81 6 104 -14 16 -77 22 -97 8z" fill="#ffffff"/>
<path d="M6405 2375 c-31 -30 -31 -48 -3 -75 26 -24 46 -25 76 -4 35 25 28 70 -15 93 -29 15 -30 15 -58 -14z" fill="#ffffff"/>
<path d="M1072 2237 c-44 -47 -13 -117 52 -117 41 0 69 29 69 70 0 65 -76 95 -121 47z" fill="#ffffff"/>
<path d="M6285 2155 c-30 -29 -31 -35 -4 -69 25 -32 73 -36 89 -7 17 32 12 69 -12 85 -31 22 -45 20 -73 -9z" fill="#ffffff"/>
<path d="M1213 2035 c-29 -20 -37 -59 -18 -95 14 -26 21 -30 59 -30 35 0 47 5 60 25 22 34 20 68 -7 93 -27 26 -64 28 -94 7z" fill="#ffffff"/>
<path d="M6150 1950 c-39 -39 -19 -100 34 -100 60 0 85 55 46 98 -26 27 -54 28 -80 2z" fill="#ffffff"/>
<path d="M1369 1843 c-18 -4 -39 -44 -39 -74 0 -28 44 -69 75 -69 14 0 37 11 50 25 60 59 0 141 -86 118z" fill="#ffffff"/>
<path d="M5995 1746 c-31 -31 -32 -50 0 -81 29 -30 45 -31 79 -4 30 24 33 49 9 77 -30 34 -59 37 -88 8z" fill="#ffffff"/>
<path d="M1519 1642 c-58 -61 1 -151 79 -121 34 13 42 26 42 70 0 28 -6 41 -25 53 -31 20 -75 20 -96 -2z" fill="#ffffff"/>
<path d="M5814 1554 c-35 -53 21 -113 80 -86 58 26 36 112 -29 112 -26 0 -39 -6 -51 -26z" fill="#ffffff"/>
<path d="M1699 1461 c-34 -35 -36 -59 -8 -95 25 -32 86 -37 112 -8 25 28 22 84 -6 110 -32 30 -63 28 -98 -7z" fill="#ffffff"/>
<path d="M5655 1408 c-27 -15 -35 -28 -35 -58 1 -37 23 -60 57 -60 38 0 63 27 63 68 0 25 -6 35 -30 47 -34 18 -30 17 -55 3z" fill="#ffffff"/>
<path d="M1902 1312 c-34 -26 -35 -87 -3 -113 51 -41 121 -8 121 56 0 62 -69 95 -118 57z" fill="#ffffff"/>
<path d="M5438 1249 c-12 -7 -18 -22 -18 -49 0 -48 33 -76 77 -65 35 8 43 21 43 67 0 27 -5 40 -19 48 -25 13 -61 12 -83 -1z" fill="#ffffff"/>
<path d="M2122 1180 c-44 -19 -53 -108 -12 -130 32 -17 78 -12 100 12 53 58 -14 148 -88 118z" fill="#ffffff"/>
<path d="M5228 1120 c-25 -15 -33 -66 -14 -95 22 -33 58 -41 90 -20 21 14 26 25 26 56 0 56 -53 87 -102 59z" fill="#ffffff"/>
<path d="M2322 1037 c-54 -57 2 -144 75 -116 56 21 69 74 28 114 -31 32 -74 33 -103 2z" fill="#ffffff"/>
<path d="M4997 992 c-25 -27 -22 -78 5 -96 48 -34 108 -7 108 48 0 19 -8 40 -18 49 -25 22 -75 21 -95 -1z" fill="#ffffff"/>
<path d="M2553 938 c-30 -38 -34 -58 -18 -88 29 -55 93 -59 129 -8 36 51 3 108 -63 108 -21 0 -43 -6 -48 -12z" fill="#ffffff"/>
<path d="M4769 891 c-34 -35 -36 -49 -8 -85 24 -30 78 -36 103 -10 26 25 20 79 -10 103 -36 28 -50 26 -85 -8z" fill="#ffffff"/>
<path d="M2809 865 c-55 -30 -57 -96 -4 -131 21 -14 30 -14 55 -4 58 24 67 84 19 124 -35 30 -35 30 -70 11z" fill="#ffffff"/>
<path d="M4525 815 c-14 -13 -25 -33 -25 -45 0 -28 43 -70 72 -70 42 0 68 27 68 70 0 67 -68 93 -115 45z" fill="#ffffff"/>
<path d="M3021 771 c-28 -39 -27 -53 8 -90 43 -46 86 -38 116 20 15 28 15 33 -2 62 -16 27 -26 33 -60 35 -36 3 -44 -1 -62 -27z" fill="#ffffff"/>
<path d="M4286 759 c-37 -29 -35 -70 5 -103 37 -31 36 -31 77 -6 26 16 32 26 32 55 0 67 -61 96 -114 54z" fill="#ffffff"/>
<path d="M3283 743 c-34 -23 -32 -85 3 -112 15 -12 34 -21 44 -21 10 0 29 9 44 21 73 58 -15 166 -91 112z" fill="#ffffff"/>
<path d="M3555 730 c-76 -30 -57 -140 24 -140 39 0 71 34 71 76 0 28 -6 38 -32 54 -37 22 -35 22 -63 10z" fill="#ffffff"/>
<path d="M4026 718 c-23 -32 -20 -71 7 -96 33 -32 70 -28 101 9 28 33 28 58 -2 92 -23 26 -87 23 -106 -5z" fill="#ffffff"/>
<path d="M3785 705 c-43 -42 -23 -106 37 -121 22 -5 33 0 58 24 37 37 38 61 4 96 -33 33 -68 33 -99 1z" fill="#ffffff"/>
</g>
</svg>