 <svg  version="1.0" xmlns="http://www.w3.org/2000/svg"  width="900.000000pt" height="507.000000pt" viewBox="0 0 900.000000 507.000000"  preserveAspectRatio="xMidYMid meet">  <g transform="translate(0.000000,507.000000) scale(0.100000,-0.100000)" fill="#ffffff" stroke="none"> <path d="M4068 3619 c-50 -25 -105 -84 -120 -128 -18 -52 -24 -2140 -7 -2224 16 -78 54 -129 123 -161 l55 -26 485 0 c453 0 487 1 528 19 56 24 90 55 118 109 22 41 22 52 28 532 5 467 4 490 -13 496 -11 5 -30 0 -47 -9 -17 -9 -36 -17 -44 -17 -8 0 -23 -9 -34 -20 -19 -19 -20 -33 -20 -273 0 -183 -3 -256 -12 -265 -9 -9 -135 -12 -505 -12 -476 0 -493 1 -503 19 -7 13 -10 306 -10 880 0 848 0 861 20 881 19 19 33 20 498 20 451 0 480 -1 495 -18 14 -16 17 -44 17 -189 0 -164 1 -170 23 -191 13 -12 30 -22 39 -22 9 0 21 -7 28 -16 8 -8 25 -14 39 -12 l26 3 -1 237 c-2 224 -3 240 -24 280 -28 54 -62 85 -118 109 -41 18 -74 19 -535 18 -459 -1 -494 -2 -529 -20z m639 -2135 c8 -11 13 -46 13 -88 0 -96 -18 -116 -107 -116 -36 0 -72 4 -82 10 -30 15 -44 64 -37 122 12 91 24 99 135 93 48 -2 68 -8 78 -21z m-353 -48 c19 -30 11 -82 -15 -96 -25 -14 -73 -12 -87 2 -15 15 -16 72 -2 99 16 30 83 26 104 -5z m626 -6 c13 -32 6 -80 -13 -92 -21 -13 -75 -9 -91 8 -18 18 -21 66 -6 95 8 14 21 19 54 19 39 0 45 -3 56 -30z"/> <path d="M4936 3027 c-11 -23 -33 -61 -48 -85 -15 -24 -28 -45 -28 -47 0 -7 -111 -160 -153 -210 -49 -59 -136 -146 -192 -193 -45 -38 -184 -131 -230 -154 -16 -8 -45 -22 -63 -31 -19 -9 -42 -17 -53 -17 -20 0 -30 -26 -26 -70 2 -24 7 -25 82 -34 172 -19 675 -4 706 20 8 7 39 16 69 22 116 23 155 33 164 42 6 6 17 10 26 10 8 0 28 7 44 15 15 8 33 15 39 15 10 0 98 41 107 50 3 3 26 16 53 30 26 13 47 27 47 31 0 3 10 10 23 16 53 24 247 218 247 246 0 7 -37 29 -83 51 -45 21 -89 42 -97 47 -8 5 -22 12 -30 15 -17 7 -130 60 -270 127 -52 25 -106 51 -120 57 -14 5 -58 28 -99 50 -40 22 -79 40 -85 40 -6 0 -20 -19 -30 -43z"/> <path d="M4152 2665 c-20 -26 -22 -38 -22 -177 0 -173 3 -178 73 -138 9 5 25 15 35 20 9 6 24 13 32 16 8 3 22 10 30 15 8 5 22 12 30 15 8 3 22 10 30 15 8 5 23 12 33 15 25 9 21 16 -24 44 -41 25 -108 92 -164 165 l-31 38 -22 -28z"/> <path d="M3840 2365 c-14 -17 -51 -35 -128 -61 -46 -16 -51 -20 -37 -33 9 -9 40 -17 82 -19 38 -2 72 -8 78 -13 26 -25 35 -8 35 66 0 75 -7 88 -30 60z"/> </g> </svg> 