<svg xmlns="http://www.w3.org/2000/svg" version="1.0" width="225.000000pt" height="225.000000pt" viewBox="0 0 225.000000 225.000000" preserveAspectRatio="xMidYMid meet">  <g transform="translate(0.000000,225.000000) scale(0.050000,-0.050000)" fill="#df0000" stroke="none"> <path d="M1964 3431 c-1383 -315 -1162 -2339 256 -2339 1206 0 1653 1593 616 2196 -199 116 -452 -88 -481 -387 -4 -41 8 -52 77 -72 706 -210 538 -1219 -202 -1219 -832 0 -912 1205 -108 1611 164 83 348 138 468 141 l100 2 -120 39 c-158 52 -442 65 -606 28z" fill="#000000"/> </g> </svg>